<?xml version="1.0" standalone="no"?>
<!DOCTYPE svg PUBLIC "-//W3C//DTD SVG 20010904//EN"
 "http://www.w3.org/TR/2001/REC-SVG-20010904/DTD/svg10.dtd">
<svg version="1.0" xmlns="http://www.w3.org/2000/svg"
 width="656.000000pt" height="656.000000pt" viewBox="0 0 656.000000 656.000000"
 preserveAspectRatio="xMidYMid meet">
<metadata>
Created by potrace 1.14, written by Peter Selinger 2001-2017
</metadata>
<g transform="translate(0.000000,656.000000) scale(0.100000,-0.100000)"
fill="#000000" stroke="none">
<path d="M1668 6375 c-1 -1 -36 -6 -77 -9 -41 -4 -78 -9 -84 -13 -5 -3 -26 -8
-46 -10 -49 -6 -250 -74 -336 -113 -178 -81 -327 -187 -463 -329 -35 -36 -87
-91 -117 -121 -99 -103 -251 -356 -325 -543 -31 -81 -74 -233 -84 -303 -4 -22
-9 -51 -12 -64 -18 -85 -24 -365 -11 -495 47 -475 264 -902 600 -1182 148
-123 417 -290 762 -473 547 -290 682 -379 804 -533 66 -84 98 -229 79 -355
-49 -314 -431 -507 -773 -390 -156 54 -257 158 -399 408 -105 184 -193 290
-286 342 -30 17 -67 42 -81 55 -28 25 -69 32 -225 33 -90 1 -218 -22 -280 -51
-88 -40 -208 -147 -220 -196 -4 -16 -19 -50 -34 -78 -31 -59 -50 -145 -51
-235 -2 -262 144 -510 471 -800 47 -41 87 -78 90 -81 17 -18 214 -171 260
-201 232 -150 554 -265 825 -295 90 -10 340 -10 427 0 242 27 533 140 780 303
147 98 385 344 448 464 7 14 16 27 19 30 14 12 95 178 120 245 l26 73 37 -82
c20 -44 64 -141 97 -215 100 -223 211 -388 364 -543 137 -140 241 -216 397
-291 92 -44 223 -91 285 -101 17 -3 55 -10 85 -16 126 -25 376 -32 563 -17 72
7 291 42 372 61 11 2 40 9 65 15 59 13 229 69 255 84 11 6 22 12 25 12 16 3
94 49 148 89 65 48 140 140 173 214 21 45 49 159 49 198 0 37 27 36 65 -2 44
-44 67 -42 73 6 2 19 10 42 18 51 8 9 11 19 8 22 -4 4 -8 37 -9 75 -2 43 -10
86 -23 115 -11 25 -18 54 -16 65 7 24 -77 150 -148 223 -172 177 -317 234
-598 234 -129 0 -157 -4 -250 -35 -112 -38 -180 -80 -268 -168 l-83 -84 -62
58 c-124 116 -158 156 -198 234 -57 112 -56 81 -52 1495 2 715 5 1478 6 1695
4 449 -1 527 -43 649 -99 294 -335 506 -650 583 -62 15 -372 18 -455 5 -111
-18 -298 -99 -380 -165 -61 -48 -165 -156 -197 -203 -18 -27 -36 -49 -39 -49
-4 0 -18 17 -32 38 -60 89 -192 230 -284 304 -64 51 -266 162 -276 152 -3 -3
-25 7 -49 24 -164 112 -398 181 -640 187 -75 2 -138 2 -140 0z m189 -1129 c28
-9 72 -35 96 -57 86 -75 121 -162 172 -424 35 -178 51 -235 92 -325 36 -77
123 -206 177 -262 46 -47 127 -108 144 -108 5 0 17 -9 26 -19 19 -21 103 -60
151 -70 71 -14 199 -4 267 22 206 79 377 274 423 482 6 26 8 27 17 12 6 -11 9
-333 9 -900 0 -1109 0 -1070 -13 -1032 -17 47 -76 153 -134 240 -146 220 -374
456 -666 691 -41 32 -272 187 -368 246 -58 36 -237 140 -399 233 l-293 167
-69 3 c-85 3 -133 31 -184 108 -45 68 -63 148 -60 267 4 170 42 326 115 476
39 80 61 112 106 153 120 110 255 143 391 97z"/>
</g>
</svg>
